<?xml version="1.0" encoding="UTF-8"?>
<svg id="Lag_1" data-name="Lag 1" xmlns="http://www.w3.org/2000/svg" viewBox="0 0 1000 1000">
  <defs>
    <style>
      .cls-1 {
        fill: #d22e2e;
      }

      .cls-2 {
        fill: none;
      }

      .cls-3 {
        stroke-width: 30px;
      }

      .cls-3, .cls-4 {
        fill: #fff;
        stroke: #1c1c1c;
        stroke-miterlimit: 10;
      }

      .cls-4 {
        stroke-width: 40px;
      }

      .cls-5 {
        fill: #eee;
      }
    </style>
  </defs>
  <g>
    <path class="cls-2" d="m669.88,394.77c26.92,13.25,49.81,31.74,68.68,55.42,2.94,3.69,5.75,7.49,8.47,11.38l98.69-75.09-58.36-76.71c-13.61-17.89-28.25-33.5-43.93-46.81-15.66-13.31-32.27-22.88-49.82-28.71-17.52-5.83-35.96-7.2-55.29-4.1-19.31,3.1-38.87,12.17-58.67,27.23-19.78,15.05-32.95,31.88-39.47,50.47-6.52,18.58-8.57,38.08-6.19,58.45.52,4.38,1.25,8.77,2.12,13.15,14.19-3.02,28.85-4.56,44.01-4.56,32.94,0,62.86,6.63,89.76,19.88h0Z"/>
    <path class="cls-2" d="m590.43,488.19l44.59,58.6,33.21-25.27c-19.17-21.8-45.11-32.92-77.8-33.33h0Z"/>
    <path class="cls-2" d="m365.66,564.04c14.25-45.37,31.87-81.99,52.88-109.87-12.74-3.45-25.94-4.31-39.6-2.47-16.91,2.27-34.96,10.7-54.11,25.27-30.65,23.32-45.08,50.72-43.33,82.17,1.77,31.46,15.77,64.45,42.03,98.97l8.23,10.81c3.39-9.01,6.66-18.65,9.8-28.99l24.1-75.9h0Z"/>
    <path class="cls-2" d="m453.61,631.51l-22.31,70.27,133.79-101.8-54.71-71.91c-1.14-1.5-2.3-2.97-3.45-4.44-9.08,10.07-17.63,22.71-25.61,38.01-9.64,18.49-18.86,41.77-27.71,69.88h0Z"/>
    <path class="cls-5" d="m431.31,701.78l22.31-70.27c8.85-28.11,18.07-51.39,27.71-69.88,7.98-15.29,16.53-27.94,25.61-38.01-11.15-14.2-22.94-27.1-35.4-38.67-13.73-12.76-28.36-22.06-43.91-27.9-3-1.13-6.03-2.06-9.09-2.88-21.01,27.87-38.63,64.5-52.88,109.87l-24.1,75.9c-3.14,10.34-6.41,19.99-9.8,28.99l52.32,68.77,47.22-35.93h0s0,.01,0,.01Z"/>
    <path class="cls-5" d="m588.33,485.42l2.1,2.77c32.69.41,58.63,11.53,77.8,33.33l78.8-59.95c-2.72-3.89-5.54-7.69-8.47-11.38-18.86-23.68-41.76-42.17-68.68-55.42-26.9-13.25-56.82-19.88-89.76-19.88-15.16,0-29.83,1.54-44.01,4.56,3.19,16.03,8.71,32.12,16.63,48.27,10.12,20.57,21.98,39.81,35.59,57.7h0Z"/>
    <path class="cls-5" d="m219.88,766.45c-36.14,0-64.25-13.25-84.34-39.76-20.07-26.51-30.12-62.65-30.12-108.43,0-28.92,3.43-57.23,10.24-84.94,6.83-27.71,18.28-58.83,34.34-93.37l-91.57-26.51c-16.06,33.74-27.11,67.88-33.13,102.41-6.02,34.54-9.04,70.29-9.04,107.23,0,83.55,19.48,147.19,58.43,190.96,38.97,43.79,91.77,65.66,158.43,65.66,48.64,0,87.85-12.9,117.65-38.69l-70.44-92.58c-16.48,12-36.62,18.02-60.46,18.02h0Z"/>
    <path class="cls-5" d="m707.83,644.77c0,36.14-4.01,70.69-12.05,103.61-8.02,32.94-20.48,66.68-37.35,101.21l90.36,26.51c18.49-39.34,31.14-78.92,37.95-118.67,6.81-39.76,10.24-78.92,10.24-117.47,0-25.44-2.2-49.47-6.57-72.11l-82.96,63.12c.23,4.53.37,9.13.37,13.81h.01Z"/>
    <path class="cls-1" d="m599.11,122.96c-29.01,4.92-55.98,16.86-80.88,35.8-21.7,16.51-38.78,34.8-51.24,54.88-12.45,20.07-20.67,40.71-24.7,61.94-4.01,21.22-4.17,42.53-.49,63.95,3.7,21.41,10.77,42.29,21.18,62.61-32.11-25-66.47-40-103.03-44.99-36.54-4.98-73.35,6.61-110.39,34.79-49.8,37.89-74.87,83.46-75.19,136.69-.33,53.23,22.38,109.9,68.09,169.98l37.9,49.81c4.63-3.37,8.98-7.18,13.03-11.5,14.24-15.15,27.03-37.83,38.39-68l-8.23-10.81c-26.26-34.52-40.26-67.51-42.03-98.97-1.75-31.46,12.68-58.85,43.33-82.17,19.16-14.57,37.2-23,54.11-25.27,13.66-1.84,26.85-.98,39.6,2.47,10.97-14.56,22.86-26.73,35.68-36.52,25.19-19.22,52.5-31.94,81.89-38.21-.87-4.39-1.61-8.77-2.12-13.15-2.39-20.37-.33-39.87,6.19-58.45,6.53-18.59,19.69-35.42,39.47-50.47,19.8-15.06,39.36-24.13,58.67-27.23,19.33-3.1,37.77-1.72,55.29,4.1,17.55,5.83,34.16,15.4,49.82,28.71,15.68,13.31,30.32,28.92,43.93,46.81l58.36,76.71-98.69,75.09c14.78,21.12,26.42,45.24,34.9,72.36,3.41,10.93,6.23,22.24,8.49,33.91l193.3-147.07-132.77-174.51c-23.82-31.31-49.86-56.92-78.11-76.82-28.23-19.9-56.99-33.85-86.27-41.85-29.27-8.01-58.41-9.54-87.44-4.62h-.04,0Z"/>
    <path class="cls-1" d="m668.23,521.52l-33.21,25.27-44.59-58.6c-.63,0-1.24-.05-1.88-.05-14.46,0-27.9,2.22-40.36,6.63-12.44,4.42-24.28,12.05-35.54,22.89-1.93,1.86-3.83,3.88-5.71,5.97,1.15,1.47,2.31,2.94,3.45,4.44l54.71,71.91-133.79,101.8-1.79,5.64c-17.66,55.42-41.75,98-72.29,127.71-2.09,2.04-4.25,3.99-6.44,5.89l29.54,38.83,327.13-248.89c-1.93-37.45-11.83-69.79-29.75-97.03-2.94-4.48-6.12-8.58-9.48-12.4h0Z"/>
    <path class="cls-1" d="m471.54,484.96c12.46,11.57,24.25,24.47,35.4,38.67,1.88-2.09,3.78-4.11,5.71-5.97,11.26-10.84,23.1-18.47,35.54-22.89,12.46-4.4,25.9-6.63,40.36-6.63.64,0,1.25.04,1.88.05l-2.1-2.77c-13.61-17.89-25.46-37.13-35.59-57.7-7.92-16.14-13.44-32.24-16.63-48.27-29.39,6.26-56.7,18.98-81.89,38.21-12.81,9.78-24.71,21.96-35.68,36.52,3.05.83,6.09,1.76,9.09,2.88,15.55,5.84,30.19,15.14,43.91,27.9h0Z"/>
    <path class="cls-5" d="m747.03,461.56l-78.8,59.95c3.36,3.82,6.54,7.93,9.48,12.4,17.92,27.24,27.81,59.58,29.75,97.03l82.96-63.12c-2.25-11.67-5.07-22.98-8.49-33.91-8.47-27.12-20.11-51.24-34.9-72.36h0s0,0,0,0Z"/>
    <path class="cls-5" d="m429.52,707.42l1.79-5.64-47.22,35.93-52.32-68.77c-11.36,30.16-24.15,52.85-38.39,68-4.05,4.32-8.4,8.13-13.03,11.5l70.44,92.58c2.19-1.9,4.35-3.85,6.44-5.89,30.53-29.71,54.63-72.29,72.29-127.71h0Z"/>
  </g>
  <circle class="cls-4" cx="224" cy="876" r="50"/>
  <circle class="cls-4" cx="718" cy="876" r="50"/>
  <polygon class="cls-3" points="223.89 876.08 223.99 876.26 224.19 876.29 224.04 876.44 224.08 876.64 223.89 876.54 223.71 876.64 223.75 876.44 223.6 876.29 223.8 876.26 223.89 876.08"/>
  <polygon class="cls-3" points="717.89 875.08 717.99 875.26 718.19 875.29 718.04 875.44 718.08 875.64 717.89 875.54 717.71 875.64 717.75 875.44 717.6 875.29 717.8 875.26 717.89 875.08"/>
</svg>